<svg width="35" height="35" viewBox="0 0 35 35" fill="none" xmlns="http://www.w3.org/2000/svg">
<rect width="35" height="35" rx="12" fill="white"/>
<path d="M13.5098 26.5145C14.4297 27.6839 15.8749 28.4375 17.5 28.4375C19.1251 28.4375 20.5703 27.6839 21.4902 26.5145C18.8414 26.8734 16.1586 26.8734 13.5098 26.5145Z" fill="#70D767"/>
<path d="M24.8819 14.2187V14.9889C24.8819 15.9131 25.1456 16.8166 25.6399 17.5856L26.8512 19.47C27.9575 21.1912 27.1129 23.5308 25.1887 24.0751C20.1548 25.499 14.8452 25.499 9.81133 24.0751C7.88708 23.5308 7.04246 21.1912 8.14883 19.47L9.36009 17.5856C9.85438 16.8166 10.1181 15.9131 10.1181 14.9889V14.2187C10.1181 9.99032 13.4231 6.5625 17.5 6.5625C21.5769 6.5625 24.8819 9.99032 24.8819 14.2187Z" fill="#70D767"/>
</svg>
