<svg width="36" height="36" viewBox="0 0 36 36" fill="none" xmlns="http://www.w3.org/2000/svg">
<rect width="36" height="36" rx="12" fill="white"/>
<path fill-rule="evenodd" clip-rule="evenodd" d="M17.3069 7.20019C17.7294 6.93327 18.2706 6.93327 18.6931 7.20019L29.4072 13.9694C30.0053 14.3473 30.1798 15.1322 29.7971 15.7226C29.4143 16.3131 28.6192 16.4854 28.0211 16.1075L26.9999 15.4623V25.6154C26.9999 27.4847 25.4649 29 23.5714 29H12.4286C10.5351 29 9.00012 27.4847 9.00012 25.6154V15.4623L7.97892 16.1075C7.38084 16.4854 6.58572 16.3131 6.20295 15.7226C5.82018 15.1322 5.99472 14.3473 6.5928 13.9694L17.3069 7.20019ZM13.7143 19.4808C13.7143 20.1062 13.9643 20.674 14.3709 21.0921L17.386 24.1471C17.7224 24.488 18.2775 24.488 18.6139 24.147L21.5681 21.1526C22.0106 20.7296 22.2857 20.1369 22.2857 19.4808C22.2857 18.1956 21.2303 17.1538 19.9285 17.1538C19.1313 17.1538 18.4266 18.0205 18 18.6185C17.5734 18.0205 16.8687 17.1538 16.0715 17.1538C14.7697 17.1538 13.7143 18.1956 13.7143 19.4808Z" fill="#70D767"/>
</svg>
