<svg width="152" height="78" viewBox="0 0 152 78" fill="none" xmlns="http://www.w3.org/2000/svg">
<path d="M25.6197 56.056C5.15756 46.8092 11.3317 10.9262 11.3317 10.9262C11.3317 10.9262 47.215 4.75177 56.4617 25.214C61.0851 35.445 49.7057 49.3002 49.7057 49.3002C49.7057 49.3002 35.8507 60.6794 25.6197 56.056Z" fill="url(#paint0_linear_253_183)" stroke="#4F9837" stroke-width="5"/>
<path d="M24.9485 24.5427L34.8514 34.4456M58.371 57.9652L41.0408 40.635M41.0408 40.635L44.5008 27.272M41.0408 40.635L34.8514 34.4456M34.8514 34.4456L22.8904 36.5037" stroke="#4F9837" stroke-width="5" stroke-linecap="round" stroke-linejoin="round"/>
<path d="M80.4511 19.84C80.4511 21.0347 80.1711 22.1267 79.6111 23.116C79.0698 24.0867 78.2391 24.8707 77.1191 25.468C76.0178 26.0467 74.6644 26.336 73.0591 26.336H70.3431V33H64.8551V13.26H73.0591C74.6458 13.26 75.9898 13.54 77.0911 14.1C78.2111 14.66 79.0511 15.4347 79.6111 16.424C80.1711 17.4133 80.4511 18.552 80.4511 19.84ZM72.5271 21.968C74.0764 21.968 74.8511 21.2587 74.8511 19.84C74.8511 18.4027 74.0764 17.684 72.5271 17.684H70.3431V21.968H72.5271ZM88.1439 12.28V33H82.6559V12.28H88.1439ZM90.3732 25.132C90.3732 23.508 90.6625 22.0893 91.2412 20.876C91.8385 19.6627 92.6412 18.7293 93.6492 18.076C94.6758 17.4227 95.8145 17.096 97.0652 17.096C98.1478 17.096 99.0812 17.3107 99.8652 17.74C100.649 18.1693 101.256 18.748 101.685 19.476V17.292H107.173V33H101.685V30.816C101.256 31.544 100.64 32.1227 99.8372 32.552C99.0532 32.9813 98.1292 33.196 97.0652 33.196C95.8145 33.196 94.6758 32.8693 93.6492 32.216C92.6412 31.5627 91.8385 30.6293 91.2412 29.416C90.6625 28.184 90.3732 26.756 90.3732 25.132ZM101.685 25.132C101.685 24.124 101.405 23.3307 100.845 22.752C100.304 22.1733 99.6318 21.884 98.8292 21.884C98.0078 21.884 97.3265 22.1733 96.7852 22.752C96.2438 23.312 95.9732 24.1053 95.9732 25.132C95.9732 26.14 96.2438 26.9427 96.7852 27.54C97.3265 28.1187 98.0078 28.408 98.8292 28.408C99.6318 28.408 100.304 28.1187 100.845 27.54C101.405 26.9613 101.685 26.1587 101.685 25.132ZM120.576 17.152C122.387 17.152 123.824 17.7587 124.888 18.972C125.952 20.1667 126.484 21.7907 126.484 23.844V33H120.996V24.572C120.996 23.676 120.763 22.976 120.296 22.472C119.83 21.9493 119.204 21.688 118.42 21.688C117.599 21.688 116.955 21.9493 116.488 22.472C116.022 22.976 115.788 23.676 115.788 24.572V33H110.3V17.292H115.788V19.532C116.274 18.8227 116.927 18.2533 117.748 17.824C118.57 17.376 119.512 17.152 120.576 17.152ZM138.764 28.324V33H136.384C132.37 33 130.364 31.012 130.364 27.036V21.856H128.432V17.292H130.364V13.484H135.88V17.292H138.736V21.856H135.88V27.12C135.88 27.5493 135.973 27.8573 136.16 28.044C136.365 28.2307 136.701 28.324 137.168 28.324H138.764ZM84.5259 57L82.9299 55.488C81.1565 56.7013 79.0379 57.308 76.5739 57.308C75.0245 57.308 73.6712 57.056 72.5139 56.552C71.3752 56.048 70.4885 55.3387 69.8539 54.424C69.2379 53.5093 68.9299 52.4547 68.9299 51.26C68.9299 50.0653 69.2379 48.9827 69.8539 48.012C70.4885 47.0227 71.4312 46.22 72.6819 45.604C72.2152 45.0067 71.8792 44.4373 71.6739 43.896C71.4685 43.3547 71.3659 42.776 71.3659 42.16C71.3659 41.1893 71.6179 40.3027 72.1219 39.5C72.6259 38.6973 73.3632 38.0627 74.3339 37.596C75.3232 37.1107 76.4899 36.868 77.8339 36.868C79.1965 36.868 80.3539 37.12 81.3059 37.624C82.2579 38.1093 82.9672 38.7627 83.4339 39.584C83.9192 40.3867 84.1525 41.264 84.1339 42.216H79.0659C79.0659 41.7867 78.9445 41.46 78.7019 41.236C78.4592 41.012 78.1605 40.9 77.8059 40.9C77.4325 40.9 77.1152 41.012 76.8539 41.236C76.6112 41.4413 76.4899 41.7307 76.4899 42.104C76.4899 42.7573 76.9565 43.5507 77.8899 44.484L82.5099 48.992C82.6779 48.656 82.8552 48.2547 83.0419 47.788L83.6019 46.78H89.0339L88.2219 48.348C87.5499 49.9533 86.8125 51.3067 86.0099 52.408L90.7139 57H84.5259ZM76.9379 52.912C77.9272 52.912 78.8045 52.6973 79.5699 52.268L75.6779 48.544C75.1925 48.8427 74.8285 49.188 74.5859 49.58C74.3432 49.972 74.2219 50.3733 74.2219 50.784C74.2219 51.3813 74.4645 51.8853 74.9499 52.296C75.4352 52.7067 76.0979 52.912 76.9379 52.912ZM110.254 43.756C109.937 43.2333 109.498 42.832 108.938 42.552C108.397 42.272 107.753 42.132 107.006 42.132C105.625 42.132 104.533 42.58 103.73 43.476C102.946 44.372 102.554 45.576 102.554 47.088C102.554 48.7867 102.974 50.084 103.814 50.98C104.673 51.8573 105.914 52.296 107.538 52.296C109.461 52.296 110.833 51.428 111.654 49.692H106.138V45.744H116.386V51.064C115.957 52.1093 115.322 53.0893 114.482 54.004C113.661 54.9187 112.615 55.6747 111.346 56.272C110.077 56.8507 108.63 57.14 107.006 57.14C105.027 57.14 103.273 56.72 101.742 55.88C100.23 55.0213 99.0539 53.836 98.2139 52.324C97.3926 50.7933 96.9819 49.048 96.9819 47.088C96.9819 45.1467 97.3926 43.42 98.2139 41.908C99.0539 40.3773 100.23 39.192 101.742 38.352C103.254 37.4933 104.999 37.064 106.978 37.064C109.461 37.064 111.514 37.6613 113.138 38.856C114.762 40.0507 115.77 41.684 116.162 43.756H110.254ZM126.153 57.196C124.585 57.196 123.176 56.8693 121.925 56.216C120.693 55.5627 119.723 54.6293 119.013 53.416C118.304 52.2027 117.949 50.7747 117.949 49.132C117.949 47.508 118.304 46.0893 119.013 44.876C119.741 43.6627 120.721 42.7293 121.953 42.076C123.204 41.4227 124.613 41.096 126.181 41.096C127.749 41.096 129.149 41.4227 130.381 42.076C131.632 42.7293 132.612 43.6627 133.321 44.876C134.049 46.0893 134.413 47.508 134.413 49.132C134.413 50.756 134.049 52.184 133.321 53.416C132.612 54.6293 131.632 55.5627 130.381 56.216C129.131 56.8693 127.721 57.196 126.153 57.196ZM126.153 52.436C126.919 52.436 127.553 52.156 128.057 51.596C128.58 51.0173 128.841 50.196 128.841 49.132C128.841 48.068 128.58 47.256 128.057 46.696C127.553 46.136 126.928 45.856 126.181 45.856C125.435 45.856 124.809 46.136 124.305 46.696C123.801 47.256 123.549 48.068 123.549 49.132C123.549 50.2147 123.792 51.036 124.277 51.596C124.763 52.156 125.388 52.436 126.153 52.436Z" fill="#EFEFEF"/>
<defs>
<linearGradient id="paint0_linear_253_183" x1="19.9594" y1="17.18" x2="49.8008" y2="49.2116" gradientUnits="userSpaceOnUse">
<stop stop-color="#70D767"/>
<stop offset="1" stop-color="#42C037"/>
</linearGradient>
</defs>
</svg>
