<svg width="98" height="98" viewBox="0 0 98 98" fill="none" xmlns="http://www.w3.org/2000/svg">
<circle cx="48.552" cy="48.552" r="48.552" fill="white"/>
<path d="M75.9478 30.3477L71.1509 63.124C69.9236 71.5103 62.731 77.7275 54.2554 77.7275H42.1294C33.7862 77.7274 26.6858 71.7032 25.2954 63.5156L25.2339 63.124L20.437 30.3477H75.9478Z" fill="#F9FCF8" stroke="#348E2B" stroke-width="3" stroke-linecap="round"/>
<path d="M61.3975 44.4209L60.9619 44.4326C56.4701 44.6234 52.1305 46.9297 49.374 51.0449L49.1152 51.4453C46.5031 55.611 46.0588 60.6327 47.5156 65.0195L47.8613 66.0596L48.957 66.0469C53.4574 65.9929 57.8518 63.8137 60.709 59.8154L60.9805 59.4229C63.8215 55.1814 64.3427 49.9765 62.8389 45.4482L62.4932 44.4082L61.3975 44.4209Z" fill="#70D767" stroke="#348E2B" stroke-width="3"/>
<path d="M36.6147 53.5957C39.6415 53.9476 42.5354 55.5637 44.5122 58.3311L44.7231 58.6367C46.7178 61.6148 47.2575 65.2185 46.4858 68.5107C43.4596 68.1586 40.5659 66.5443 38.5894 63.7773L38.3784 63.4717C36.3834 60.4932 35.8426 56.8884 36.6147 53.5957Z" fill="#70D767" stroke="#348E2B" stroke-width="3"/>
<path d="M49.0569 72.3076C49.0569 72.3076 47.1118 69.8615 49.0569 65.9143C51.002 61.9672 52.5721 58.4833 55.9531 56.7861" stroke="#348E2B" stroke-width="3" stroke-linecap="round"/>
<ellipse cx="48.1923" cy="28.8475" rx="10.865" ry="29.4908" transform="rotate(90 48.1923 28.8475)" fill="#F9FCF8"/>
<path fill-rule="evenodd" clip-rule="evenodd" d="M20.6382 32.7278C24.8782 36.8121 35.616 39.7125 48.1926 39.7125C60.7692 39.7125 71.507 36.8121 75.747 32.7278C71.507 28.6436 60.7692 25.7432 48.1926 25.7432C35.616 25.7432 24.8782 28.6436 20.6382 32.7278Z" fill="#70D767"/>
<path d="M76.1831 29.041C76.1831 29.9849 75.6784 31.0641 74.3706 32.2236C73.0645 33.3816 71.0889 34.4933 68.519 35.457C63.3901 37.3804 56.2033 38.6006 48.1919 38.6006C40.1806 38.6005 32.9945 37.3803 27.8657 35.457C25.2958 34.4933 23.3203 33.3816 22.0142 32.2236C20.7063 31.0641 20.2017 29.9849 20.2017 29.041C20.2018 28.0972 20.7065 27.0187 22.0142 25.8594C23.3203 24.7014 25.2958 23.5897 27.8657 22.626C32.9945 20.7027 40.1806 19.4825 48.1919 19.4824C56.2033 19.4824 63.3901 20.7026 68.519 22.626C71.0889 23.5897 73.0645 24.7014 74.3706 25.8594C75.6781 27.0187 76.1829 28.0973 76.1831 29.041Z" stroke="#348E2B" stroke-width="3"/>
</svg>
